<?xml version="1.0" encoding="utf-8"?>
<!-- Generator: Adobe Illustrator 23.0.1, SVG Export Plug-In . SVG Version: 6.00 Build 0)  -->
<svg version="1.1" id="Layer_1" xmlns="http://www.w3.org/2000/svg" xmlns:xlink="http://www.w3.org/1999/xlink" x="0px" y="0px"
	 viewBox="0 0 283.5 118.2" style="enable-background:new 0 0 283.5 118.2;" xml:space="preserve">
<style type="text/css">
	.st0{fill:#FFFFFF;}
	.st1{fill:#F9A51A;}
</style>
<g>
	<g>
		<path class="st0" d="M83.6,110.9c0.1-1.8,0.8-3.5,2.1-4.8c0.5-0.5,1.1-0.9,1.7-1.2c-2.3-1.3-4.6-2.8-7-4.4c3.8-2,7.4-4.5,10.5-7.5
			c3.1-2.9,3.6-7.7,1.2-11.2l0-0.1C84.6,92.5,72.1,99.6,58,99.3c-22.2-0.4-39.9-18.7-39.5-40.9C18.8,44.9,25.7,33.1,36,26
			c-1.3-0.9-2.7-1.8-4-2.7c-1.1-0.7-2.6-0.6-3.6,0.3c-4.5,3.9-8.3,8.6-11.1,14c-1-1.5-1.9-3.1-2.8-4.6C8.2,22.1,5.8,13.5,7.4,7.8
			c0.4-1.5,1.1-2.9,2.1-4c0.1-0.1,0.2-0.2,0.3-0.3c1.2-1.2,2.6-2,4.3-2.5c-0.9-0.1-1.8-0.2-2.6-0.2C7.9,0.6,5.2,1.6,3.1,3.5
			c-5.2,5-3.9,15.3,3.8,29.6c2,3.8,4.5,7.9,7.3,12c-1.7,5.5-2.5,11.5-2,17.7c1.9,24.1,22.4,42.9,46.5,43c0.6,0,1.1,0,1.7,0
			c3.9-0.1,7.8-0.8,11.4-1.8c4,2.8,8,5.3,11.7,7.3C83.6,111.1,83.6,111,83.6,110.9z"/>
		<path class="st1" d="M95.7,106.2c-2.2-2.3-5.6-2.8-8.3-1.4c-0.6,0.3-1.2,0.7-1.7,1.2c-1.4,1.3-2.1,3.1-2.1,4.8c0,0.1,0,0.2,0,0.4
			c0,1.6,0.6,3.2,1.7,4.5c0.1,0.1,0.2,0.2,0.3,0.3c2.7,2.8,7.2,2.9,10,0.2C98.4,113.5,98.4,109.1,95.7,106.2z"/>
	</g>
	<g>
		<path class="st0" d="M181,32.8l-4.9,16.9l-5.7-16.9H163l-5.7,16.9l-4.2-14.5c-0.4-1.4-1.7-2.3-3.1-2.3h-0.1H145h-6.9V25h-6.4v3.7
			c0,2.4-1.3,4.2-4.1,4.2h-1.3v6.3h4.8v12.2c0,5.1,3.2,8.1,8.3,8.1c2.1,0,3.4-0.4,4-0.6V53c-0.4,0.1-1.3,0.2-2.2,0.2
			c-2,0-3.1-0.7-3.1-3v-11h8.9l6.4,20h7.2l6-17.9l6.1,17.9h7.1l8.2-26.3H181z"/>
		<path class="st0" d="M215.8,46c0,8.1-5.9,13.9-13.8,13.9S188.3,54,188.3,46c0-8.1,5.9-13.9,13.8-13.9S215.8,37.9,215.8,46z
			 M208.7,46c0-5-3.2-7.5-6.7-7.5c-3.5,0-6.7,2.5-6.7,7.5c0,4.9,3.2,7.5,6.7,7.5C205.5,53.5,208.7,50.9,208.7,46z"/>
		<path class="st0" d="M129.3,91.2V64.9h3.6c1.8,0,3.2,1.4,3.2,3.2l0,0c1.4-2.6,4.8-4,7.7-4c3.6,0,6.5,1.5,7.8,4.4
			c2.1-3.2,4.9-4.4,8.3-4.4c4.9,0,9.5,2.9,9.5,10v17h-6.9V75.6c0-2.8-1.4-5-4.6-5c-3,0-4.9,2.4-4.9,5.2v15.4H146V75.6
			c0-2.8-1.4-5-4.6-5c-3.1,0-4.9,2.3-4.9,5.2v15.4H129.3z"/>
		<path class="st0" d="M200.7,78c0,8.1-5.9,13.9-13.8,13.9s-13.8-5.9-13.8-13.9c0-8.1,5.9-13.9,13.8-13.9S200.7,69.9,200.7,78z
			 M193.6,78c0-5-3.2-7.5-6.7-7.5c-3.5,0-6.7,2.5-6.7,7.5c0,4.9,3.2,7.5,6.7,7.5C190.4,85.5,193.6,83,193.6,78z"/>
		<path class="st0" d="M231,78c0,8.1-5.9,13.9-13.8,13.9s-13.8-5.9-13.8-13.9c0-8.1,5.9-13.9,13.8-13.9S231,69.9,231,78z M223.9,78
			c0-5-3.2-7.5-6.7-7.5c-3.5,0-6.7,2.5-6.7,7.5c0,4.9,3.2,7.5,6.7,7.5C220.7,85.5,223.9,83,223.9,78z"/>
		<path class="st0" d="M241.8,91.2h-7.1V64.9h3.9c1.6,0,3,1.3,3,3v0.3c1.6-2.7,4.8-4,7.6-4c6.5,0,9.5,4.6,9.5,10.4v16.6h-7.1V75.8
			c0-2.9-1.4-5.2-4.9-5.2c-3.1,0-4.9,2.4-4.9,5.4V91.2z"/>
		<path class="st0" d="M268.4,82.5c0.2,2.1,1.7,4,4.8,4c2.3,0,3.5-1.2,3.5-2.6c0-1.2-0.8-2.1-2.8-2.6l-3.5-0.8
			c-5.1-1.1-7.4-4.2-7.4-7.9c0-4.7,4.2-8.6,9.8-8.6c7.5,0,10,4.8,10.3,7.6l-5.9,1.3c-0.2-1.5-1.3-3.5-4.3-3.5
			c-1.9,0-3.4,1.1-3.4,2.6c0,1.3,1,2.1,2.4,2.4l3.7,0.8c5.2,1.1,7.8,4.2,7.8,8.1c0,4.3-3.3,8.7-10.2,8.7c-7.9,0-10.6-5.1-10.9-8.1
			L268.4,82.5z"/>
	</g>
	<g>
		<path class="st0" d="M110.8,85.1c-7-13.1-18.5-28.3-32.5-42.8C70.2,34,61.4,26,52.7,19.3c1.5-0.2,3-0.4,4.6-0.4c0.7,0,1.4,0,2.1,0
			c22.2,0.4,39.9,18.7,39.5,40.9c0,2.1-0.2,4.1-0.6,6c0,0,2.5,2.9,5.8,4.2c0.8-3.2,1.2-6.6,1.3-10.1c0.4-25.8-20.1-47.1-45.9-47.5
			c-4.8-0.1-9.4,0.6-13.8,1.8c-4.3-3-8.4-5.5-12.4-7.6c0.1,2-0.6,4.1-2.1,5.6c-0.4,0.4-0.8,0.7-1.3,1c2.4,1.4,4.8,2.9,7.3,4.5
			c0,0,0,0,0,0c2,1.4,4.1,2.8,6.2,4.3c0,0,0,0,0,0c8.5,6.1,17.2,13.5,25.8,21.7c14.5,14,26.5,28.7,34,41.6
			c6.3,10.9,8.7,19.4,7.2,25.2c-0.4,1.5-1.1,2.9-2.1,4c-0.1,0.1-0.2,0.2-0.3,0.3c-1.2,1.2-2.6,2-4.3,2.5c0.9,0.1,1.8,0.2,2.6,0.2
			c3.5,0.1,6.3-0.9,8.3-2.8C119.7,109.7,118.4,99.4,110.8,85.1z"/>
		<path class="st1" d="M33.3,6.6c-0.1-1.6-0.8-3.2-2-4.4c-2.7-2.8-7.2-2.9-10-0.2C20,3.3,19.3,5,19.2,6.8c-0.1,1.7,0.5,3.5,1.7,4.9
			c0.1,0.1,0.2,0.2,0.3,0.3c2.3,2.4,5.9,2.8,8.7,1.2c0.5-0.3,0.9-0.6,1.3-1C32.8,10.6,33.5,8.6,33.3,6.6z"/>
	</g>
</g>
</svg>
